<svg width="21" height="20" viewBox="0 0 21 20" fill="none" xmlns="http://www.w3.org/2000/svg">
<g id="ic_bnb">
<g id="Vector">
<path d="M17.0577 7.97313L15.0292 10.0016L17.0577 12.0302L19.0862 10.0016L17.0577 7.97313Z" fill="white"/>
<path d="M3.55976 7.97421L1.53125 10.0027L3.55976 12.0312L5.58828 10.0027L3.55976 7.97421Z" fill="white"/>
<path d="M10.3082 14.7246L6.94574 11.3621L4.91762 13.3902L10.3082 18.7809L15.6989 13.3902L13.6707 11.3621L10.3082 14.7246Z" fill="white"/>
<path d="M10.3082 5.28086L13.6707 8.64336L15.6989 6.61523L10.3082 1.22461L4.91762 6.61523L6.94574 8.64336L10.3082 5.28086Z" fill="white"/>
<path d="M10.3071 7.99963L8.30399 10.0027L10.3071 12.0058L12.3102 10.0027L10.3071 7.99963Z" fill="white"/>
</g>
</g>
</svg>
