<svg width="61" height="60" viewBox="0 0 61 60" fill="none" xmlns="http://www.w3.org/2000/svg">
<g id="wallet 2">
<path id="Vector" d="M53.5984 31.7701V21.7187C53.598 21.3734 53.5242 21.0322 53.382 20.7176C53.2398 20.403 53.0323 20.1222 52.7734 19.8938V13.469C52.7734 12.8126 52.5126 12.1831 52.0485 11.7189C51.5844 11.2548 50.9549 10.994 50.2985 10.994H44.7076C43.2295 9.08374 41.1449 7.73379 38.7971 7.16652C36.4493 6.59925 33.9783 6.84848 31.7911 7.87318C30.5757 6.54468 29.0451 5.54407 27.3406 4.96385C25.6361 4.38363 23.8128 4.24254 22.0394 4.55363C20.2659 4.86472 18.5995 5.61795 17.1943 6.74366C15.789 7.86937 14.6903 9.33122 13.9997 10.994H10.6998C9.38839 10.9984 8.13191 11.5213 7.20458 12.4486C6.27724 13.376 5.75435 14.6324 5.75 15.9439L5.75 48.9427C5.75131 50.2551 6.27323 51.5134 7.20122 52.4414C8.12921 53.3694 9.38746 53.8913 10.6998 53.8926H51.1234C51.7798 53.8926 52.4093 53.6318 52.8735 53.1677C53.3376 52.7036 53.5984 52.0741 53.5984 51.4177V41.3662C54.0792 41.1962 54.4958 40.8818 54.7912 40.4659C55.0865 40.0501 55.2462 39.5531 55.2483 39.0431V34.0933C55.2462 33.5832 55.0865 33.0863 54.7912 32.6704C54.4958 32.2546 54.0792 31.9401 53.5984 31.7701ZM51.1234 13.469V19.2438H46.8575C46.9468 18.6982 46.994 18.1466 46.9986 17.5938C47.0014 15.8703 46.5861 14.1718 45.7883 12.644H50.2985C50.5173 12.644 50.7271 12.7309 50.8818 12.8856C51.0365 13.0403 51.1234 13.2502 51.1234 13.469ZM43.6475 12.3016C44.3689 13.2901 44.8778 14.4171 45.1422 15.6119C45.4066 16.8067 45.4207 18.0433 45.1836 19.2438H27.3643C26.9851 17.2155 27.3091 15.1186 28.283 13.2994C29.2568 11.4802 30.822 10.0477 32.7201 9.23845C34.6182 8.42922 36.7356 8.29172 38.7224 8.84867C40.7093 9.40561 42.4466 10.6237 43.6475 12.3016ZM23.8994 6.04422C25.0884 6.04254 26.266 6.27519 27.365 6.72886C28.464 7.18254 29.4629 7.84836 30.3045 8.68825C28.5977 9.81373 27.2536 11.4096 26.4347 13.2829C25.6159 15.1562 25.3573 17.2266 25.6904 19.2438H15.8303C15.1182 17.8621 14.7739 16.3204 14.8305 14.7671C14.8871 13.2138 15.3426 11.7013 16.1533 10.3751C16.964 9.04892 18.1025 7.95384 19.4592 7.19531C20.8159 6.43678 22.345 6.04036 23.8994 6.04422ZM7.39994 15.9439C7.40342 15.0698 7.7522 14.2324 8.3703 13.6143C8.98839 12.9962 9.82572 12.6475 10.6998 12.644H13.4742C12.9408 14.8432 13.1231 17.1553 13.9948 19.2438H10.8731C10.0279 19.2593 9.20675 18.9621 8.56726 18.4093C7.92778 17.8564 7.51501 17.0868 7.40819 16.2483C7.39968 16.1498 7.39692 16.0509 7.39994 15.9521V15.9439ZM51.1234 52.2426H10.6998C9.82465 52.2426 8.98531 51.895 8.36646 51.2761C7.74761 50.6573 7.39994 49.8179 7.39994 48.9427V42.343H12.8365C13.0791 42.3431 13.3186 42.3963 13.5384 42.4989C13.7582 42.6015 13.9528 42.7511 14.1086 42.937L15.45 44.5498C14.9682 45.2092 14.7437 46.0219 14.8189 46.8352C14.894 47.6484 15.2636 48.4063 15.8581 48.9662C16.4526 49.5262 17.2312 49.8498 18.0475 49.8761C18.8638 49.9025 19.6616 49.6299 20.2911 49.1094C20.9205 48.589 21.3382 47.8566 21.4656 47.0499C21.5931 46.2431 21.4216 45.4176 20.9833 44.7285C20.545 44.0393 19.8701 43.534 19.0854 43.3074C18.3007 43.0808 17.4603 43.1485 16.7221 43.4979L15.3782 41.8826C15.068 41.5097 14.6795 41.2098 14.2401 41.0042C13.8008 40.7986 13.3216 40.6923 12.8365 40.693H7.39994V37.3931H21.5416C21.7424 38.1708 22.2199 38.8485 22.8847 39.2993C23.5494 39.7501 24.3557 39.943 25.1525 39.8418C25.9493 39.7406 26.6818 39.3522 27.2127 38.7496C27.7437 38.1469 28.0366 37.3713 28.0366 36.5682C28.0366 35.765 27.7437 34.9894 27.2127 34.3868C26.6818 33.7841 25.9493 33.3958 25.1525 33.2946C24.3557 33.1934 23.5494 33.3862 22.8847 33.837C22.2199 34.2878 21.7424 34.9655 21.5416 35.7432H7.39994V32.4433H12.8365C13.3211 32.4435 13.7998 32.3371 14.2387 32.1319C14.6776 31.9266 15.0661 31.6274 15.3766 31.2554L16.7221 29.6384C17.1591 29.8516 17.6383 29.9644 18.1246 29.9684C18.8711 29.9734 19.5975 29.7268 20.1867 29.2684C20.7759 28.81 21.1935 28.1665 21.3722 27.4417C21.551 26.7169 21.4804 25.953 21.1719 25.2733C20.8633 24.5935 20.3348 24.0375 19.6716 23.6948C19.0084 23.3521 18.2491 23.2428 17.5162 23.3845C16.7832 23.5262 16.1194 23.9106 15.6316 24.4758C15.1439 25.0409 14.8607 25.7539 14.8278 26.4997C14.7948 27.2455 15.014 27.9806 15.45 28.5866L14.1111 30.1969C13.9551 30.3835 13.7602 30.5335 13.54 30.6366C13.3198 30.7396 13.0796 30.7932 12.8365 30.7934H7.39994V19.5738C8.35717 20.4238 9.59286 20.8935 10.8731 20.8937H51.1234C51.3422 20.8937 51.5521 20.9806 51.7068 21.1353C51.8615 21.29 51.9484 21.4999 51.9484 21.7187V31.6183H47.8236C46.5108 31.6183 45.2518 32.1398 44.3235 33.0681C43.3952 33.9964 42.8737 35.2554 42.8737 36.5682C42.8737 37.8809 43.3952 39.14 44.3235 40.0682C45.2518 40.9965 46.5108 41.518 47.8236 41.518H51.9484V51.4177C51.9484 51.6365 51.8615 51.8463 51.7068 52.001C51.5521 52.1557 51.3422 52.2426 51.1234 52.2426ZM18.1246 44.8179C18.4509 44.8179 18.7699 44.9147 19.0412 45.096C19.3126 45.2773 19.524 45.5349 19.6489 45.8364C19.7738 46.1379 19.8065 46.4697 19.7428 46.7897C19.6792 47.1098 19.522 47.4038 19.2913 47.6345C19.0605 47.8653 18.7665 48.0224 18.4465 48.0861C18.1264 48.1497 17.7947 48.1171 17.4932 47.9922C17.1917 47.8673 16.934 47.6558 16.7527 47.3845C16.5714 47.1132 16.4746 46.7942 16.4746 46.4678C16.4746 46.0302 16.6485 45.6106 16.9579 45.3011C17.2673 44.9917 17.687 44.8179 18.1246 44.8179ZM23.0744 36.5682C23.0744 36.2418 23.1712 35.9228 23.3525 35.6515C23.5338 35.3802 23.7915 35.1687 24.0929 35.0438C24.3944 34.9189 24.7262 34.8863 25.0462 34.9499C25.3663 35.0136 25.6603 35.1707 25.891 35.4015C26.1218 35.6322 26.2789 35.9262 26.3426 36.2463C26.4062 36.5663 26.3736 36.8981 26.2487 37.1996C26.1238 37.5011 25.9123 37.7588 25.641 37.9401C25.3697 38.1213 25.0507 38.2181 24.7243 38.2181C24.2868 38.2181 23.8671 38.0443 23.5577 37.7349C23.2482 37.4254 23.0744 37.0058 23.0744 36.5682ZM16.4746 26.6685C16.4746 26.3422 16.5714 26.0232 16.7527 25.7519C16.934 25.4805 17.1917 25.269 17.4932 25.1442C17.7947 25.0193 18.1264 24.9866 18.4465 25.0503C18.7665 25.1139 19.0605 25.2711 19.2913 25.5018C19.522 25.7326 19.6792 26.0266 19.7428 26.3466C19.8065 26.6667 19.7738 26.9984 19.6489 27.2999C19.524 27.6014 19.3126 27.8591 19.0412 28.0404C18.7699 28.2217 18.4509 28.3185 18.1246 28.3185C17.687 28.3185 17.2673 28.1446 16.9579 27.8352C16.6485 27.5258 16.4746 27.1061 16.4746 26.6685ZM53.5984 39.0431C53.5984 39.2619 53.5114 39.4717 53.3567 39.6264C53.202 39.7811 52.9922 39.8681 52.7734 39.8681H47.8236C46.9484 39.8681 46.109 39.5204 45.4902 38.9015C44.8713 38.2827 44.5237 37.4434 44.5237 36.5682C44.5237 35.693 44.8713 34.8536 45.4902 34.2348C46.109 33.616 46.9484 33.2683 47.8236 33.2683H52.7734C52.9922 33.2683 53.202 33.3552 53.3567 33.5099C53.5114 33.6646 53.5984 33.8745 53.5984 34.0933V39.0431Z" fill="white"/>
</g>
</svg>
