<svg width="60" height="60" viewBox="0 0 60 60" fill="none" xmlns="http://www.w3.org/2000/svg">
<g id="fluent:games-20-regular">
<path id="Vector" d="M18 22.5C18 22.1022 18.158 21.7206 18.4393 21.4393C18.7206 21.158 19.1022 21 19.5 21C19.8978 21 20.2794 21.158 20.5607 21.4393C20.842 21.7206 21 22.1022 21 22.5V27H25.5C25.8978 27 26.2794 27.158 26.5607 27.4393C26.842 27.7206 27 28.1022 27 28.5C27 28.8978 26.842 29.2794 26.5607 29.5607C26.2794 29.842 25.8978 30 25.5 30H21V34.5C21 34.8978 20.842 35.2794 20.5607 35.5607C20.2794 35.842 19.8978 36 19.5 36C19.1022 36 18.7206 35.842 18.4393 35.5607C18.158 35.2794 18 34.8978 18 34.5V30H13.5C13.1022 30 12.7206 29.842 12.4393 29.5607C12.158 29.2794 12 28.8978 12 28.5C12 28.1022 12.158 27.7206 12.4393 27.4393C12.7206 27.158 13.1022 27 13.5 27H18V22.5ZM45 24C45 24.7956 44.6839 25.5587 44.1213 26.1213C43.5587 26.6839 42.7957 27 42 27C41.2043 27 40.4413 26.6839 39.8787 26.1213C39.3161 25.5587 39 24.7956 39 24C39 23.2044 39.3161 22.4413 39.8787 21.8787C40.4413 21.3161 41.2043 21 42 21C42.7957 21 43.5587 21.3161 44.1213 21.8787C44.6839 22.4413 45 23.2044 45 24ZM36 36C36.7956 36 37.5587 35.6839 38.1213 35.1213C38.6839 34.5587 39 33.7956 39 33C39 32.2044 38.6839 31.4413 38.1213 30.8787C37.5587 30.3161 36.7956 30 36 30C35.2044 30 34.4413 30.3161 33.8787 30.8787C33.3161 31.4413 33 32.2044 33 33C33 33.7956 33.3161 34.5587 33.8787 35.1213C34.4413 35.6839 35.2044 36 36 36ZM6 28.5C6 24.1239 7.73839 19.9271 10.8327 16.8327C13.9271 13.7384 18.1239 12 22.5 12H37.5C41.8761 12 46.0729 13.7384 49.1673 16.8327C52.2616 19.9271 54 24.1239 54 28.5C54 32.8761 52.2616 37.0729 49.1673 40.1673C46.0729 43.2616 41.8761 45 37.5 45H22.5C18.1239 45 13.9271 43.2616 10.8327 40.1673C7.73839 37.0729 6 32.8761 6 28.5ZM22.5 15C18.9196 15 15.4858 16.4223 12.9541 18.9541C10.4223 21.4858 9 24.9196 9 28.5C9 32.0804 10.4223 35.5142 12.9541 38.0459C15.4858 40.5777 18.9196 42 22.5 42H37.5C39.2728 42 41.0283 41.6508 42.6662 40.9724C44.3041 40.2939 45.7924 39.2995 47.0459 38.0459C48.2995 36.7923 49.2939 35.3041 49.9724 33.6662C50.6508 32.0283 51 30.2728 51 28.5C51 26.7272 50.6508 24.9717 49.9724 23.3338C49.2939 21.6959 48.2995 20.2076 47.0459 18.9541C45.7924 17.7005 44.3041 16.7061 42.6662 16.0276C41.0283 15.3492 39.2728 15 37.5 15H22.5Z" fill="white"/>
</g>
</svg>
