<svg width="61" height="60" viewBox="0 0 61 60" fill="none" xmlns="http://www.w3.org/2000/svg">
<g id="people 2" clip-path="url(#clip0_4235_42797)">
<path id="Vector" d="M52.6109 32.0114C53.8397 31.1763 54.7684 29.9693 55.2607 28.5676C55.753 27.1658 55.7829 25.6431 55.346 24.2231C54.9092 22.8031 54.0286 21.5605 52.8335 20.6779C51.6385 19.7952 50.1919 19.3189 48.7062 19.3189C47.2206 19.3189 45.774 19.7952 44.579 20.6779C43.3839 21.5605 42.5033 22.8031 42.0665 24.2231C41.6296 25.6431 41.6595 27.1658 42.1518 28.5676C42.6441 29.9693 43.5728 31.1763 44.8016 32.0114C43.5367 32.4541 42.357 33.1105 41.3141 33.952C39.5233 32.3898 37.4157 31.2336 35.1359 30.563C36.9845 29.5364 38.4398 27.9249 39.2733 25.9816C40.1068 24.0383 40.2714 21.8732 39.7411 19.8263C39.2109 17.7793 38.0159 15.9664 36.3437 14.6722C34.6715 13.378 32.6169 12.6758 30.5023 12.6758C28.3878 12.6758 26.3332 13.378 24.661 14.6722C22.9888 15.9664 21.7938 17.7793 21.2635 19.8263C20.7333 21.8732 20.8978 24.0383 21.7314 25.9816C22.5649 27.9249 24.0202 29.5364 25.8687 30.563C23.589 31.2336 21.4813 32.3898 19.6906 33.952C18.6476 33.1105 17.468 32.4541 16.2031 32.0114C17.4334 31.1762 18.3633 29.9685 18.8565 28.5657C19.3497 27.1629 19.3801 25.6389 18.9432 24.2176C18.5063 22.7963 17.6251 21.5525 16.4292 20.6689C15.2332 19.7853 13.7854 19.3085 12.2984 19.3085C10.8115 19.3085 9.36369 19.7853 8.16772 20.6689C6.97174 21.5525 6.09061 22.7963 5.65371 24.2176C5.21681 25.6389 5.24718 27.1629 5.74036 28.5657C6.23353 29.9685 7.16352 31.1762 8.39375 32.0114C6.09124 32.8218 4.0962 34.3254 2.68274 36.3155C1.26928 38.3055 0.506779 40.6845 0.5 43.1255C0.5 43.3741 0.598772 43.6126 0.774587 43.7884C0.950403 43.9642 1.18886 44.063 1.4375 44.063C1.68614 44.063 1.9246 43.9642 2.10041 43.7884C2.27623 43.6126 2.375 43.3741 2.375 43.1255C2.37858 41.2753 2.89933 39.463 3.87845 37.8931C4.85757 36.3233 6.25607 35.0584 7.91604 34.2414C9.57602 33.4243 11.4314 33.0876 13.2726 33.2692C15.1138 33.4508 16.8676 34.1436 18.3359 35.2692C15.5523 38.3007 14.0097 42.2676 14.0141 46.3833C14.0141 46.6319 14.1128 46.8704 14.2887 47.0462C14.4645 47.222 14.7029 47.3208 14.9516 47.3208C15.2002 47.3208 15.4387 47.222 15.6145 47.0462C15.7903 46.8704 15.8891 46.6319 15.8891 46.3833C15.9577 42.5542 17.5269 38.905 20.2591 36.2214C22.9913 33.5377 26.6679 32.034 30.4977 32.034C34.3274 32.034 38.004 33.5377 40.7362 36.2214C43.4684 38.905 45.0377 42.5542 45.1063 46.3833C45.1063 46.6319 45.205 46.8704 45.3808 47.0462C45.5567 47.222 45.7951 47.3208 46.0438 47.3208C46.2924 47.3208 46.5308 47.222 46.7067 47.0462C46.8825 46.8704 46.9813 46.6319 46.9813 46.3833C46.9856 42.2676 45.443 38.3007 42.6594 35.2692C44.1277 34.1422 45.8819 33.4483 47.7239 33.2659C49.5659 33.0836 51.4221 33.42 53.0829 34.2373C54.7437 35.0545 56.1428 36.3199 57.1222 37.8906C58.1015 39.4612 58.6221 41.2745 58.625 43.1255C58.625 43.3741 58.7238 43.6126 58.8996 43.7884C59.0754 43.9642 59.3139 44.063 59.5625 44.063C59.8111 44.063 60.0496 43.9642 60.2254 43.7884C60.4012 43.6126 60.5 43.3741 60.5 43.1255C60.4936 40.6851 59.7317 38.3065 58.3192 36.3165C56.9066 34.3265 54.9126 32.8226 52.6109 32.0114ZM7.22188 26.2505C7.22465 25.247 7.52475 24.2669 8.08426 23.4339C8.64377 22.6009 9.43758 21.9525 10.3654 21.5704C11.2933 21.1883 12.3136 21.0898 13.2974 21.2872C14.2812 21.4847 15.1845 21.9693 15.8931 22.6798C16.6016 23.3904 17.0837 24.2949 17.2785 25.2793C17.4732 26.2637 17.3719 27.2837 16.9872 28.2105C16.6026 29.1373 15.9519 29.9293 15.1174 30.4865C14.2828 31.0437 13.3019 31.3411 12.2984 31.3411C11.6308 31.3405 10.9698 31.2083 10.3532 30.9521C9.73664 30.6958 9.17663 30.3206 8.70516 29.8479C8.2337 29.3751 7.86003 28.814 7.60552 28.1968C7.35101 27.5795 7.22064 26.9181 7.22188 26.2505ZM22.8312 22.2098C22.835 20.6939 23.2879 19.2131 24.1328 17.9544C24.9777 16.6958 26.1767 15.7158 27.5783 15.1382C28.9799 14.5607 30.5212 14.4115 32.0076 14.7095C33.4939 15.0075 34.8586 15.7394 35.9292 16.8126C36.9998 17.8858 37.7284 19.2523 38.0227 20.7394C38.3171 22.2265 38.1642 23.7674 37.5832 25.1676C37.0022 26.5678 36.0193 27.7644 34.7586 28.6062C33.4979 29.448 32.0159 29.8973 30.5 29.8973C28.4669 29.8949 26.5177 29.0861 25.0801 27.6485C23.6425 26.2108 22.8337 24.2617 22.8312 22.2286V22.2098ZM43.625 26.2505C43.625 25.2464 43.9227 24.2649 44.4806 23.4301C45.0384 22.5952 45.8312 21.9446 46.7588 21.5603C47.6865 21.1761 48.7072 21.0756 49.6919 21.2715C50.6767 21.4673 51.5813 21.9508 52.2912 22.6608C53.0012 23.3708 53.4847 24.2753 53.6806 25.2601C53.8765 26.2448 53.7759 27.2656 53.3917 28.1932C53.0075 29.1208 52.3568 29.9137 51.5219 30.4715C50.6871 31.0293 49.7056 31.327 48.7016 31.327C47.3556 31.3258 46.065 30.7905 45.1133 29.8388C44.1615 28.887 43.6262 27.5965 43.625 26.2505Z" fill="white"/>
</g>
<defs>
<clipPath id="clip0_4235_42797">
<rect width="60" height="60" fill="white" transform="translate(0.5)"/>
</clipPath>
</defs>
</svg>
